HIERARCHY
ROOT Hips
{
	OFFSET -0.001795 -0.223333 0.028219
	CHANNELS 6 Xposition Yposition Zposition Zrotation Yrotation Xrotation 
	JOINT LeftUpLeg
	{
		OFFSET 0.069520 -0.091406 -0.006815
		CHANNELS 3 Zrotation Yrotation Xrotation
		JOINT LeftLeg
		{
			OFFSET 0.034277 -0.375199 -0.004496
			CHANNELS 3 Zrotation Yrotation Xrotation
			JOINT LeftFoot
			{
				OFFSET -0.013596 -0.397961 -0.043693
				CHANNELS 3 Zrotation Yrotation Xrotation
				JOINT LeftToe
				{
					OFFSET 0.026358 -0.055791 0.119288
					CHANNELS 3 Zrotation Yrotation Xrotation
					End Site
					{
						OFFSET 0.000000 0.000000 0.000000
					}
				}
			}
		}
	}
	JOINT RightUpLeg
	{
		OFFSET -0.067670 -0.090522 -0.004320
		CHANNELS 3 Zrotation Yrotation Xrotation
		JOINT RightLeg
		{
			OFFSET -0.038290 -0.382569 -0.008850
			CHANNELS 3 Zrotation Yrotation Xrotation
			JOINT RightFoot
			{
				OFFSET 0.015774 -0.398415 -0.042312
				CHANNELS 3 Zrotation Yrotation Xrotation
				JOINT RightToe
				{
					OFFSET -0.025372 -0.048144 0.123348
					CHANNELS 3 Zrotation Yrotation Xrotation
					End Site
					{
						OFFSET 0.000000 0.000000 0.000000
					}
				}
			}
		}
	}
	JOINT Spine
	{
		OFFSET -0.002533 0.108963 -0.026696
		CHANNELS 3 Zrotation Yrotation Xrotation
		JOINT Spine1
		{
			OFFSET 0.005487 0.135180 0.001092
			CHANNELS 3 Zrotation Yrotation Xrotation
			JOINT Spine2
			{
				OFFSET 0.001457 0.052922 0.025425
				CHANNELS 3 Zrotation Yrotation Xrotation
				JOINT Neck
				{
					OFFSET -0.002778 0.213870 -0.042857
					CHANNELS 3 Zrotation Yrotation Xrotation
					JOINT Head
					{
						OFFSET 0.005152 0.064970 0.051349
						CHANNELS 3 Zrotation Yrotation Xrotation
						End Site
						{
							OFFSET 0.000000 0.000000 0.000000
						}
					}
				}
				JOINT LeftShoulder
				{
					OFFSET 0.078845 0.121749 -0.034090
					CHANNELS 3 Zrotation Yrotation Xrotation
					JOINT LeftArm
					{
						OFFSET 0.090977 0.030469 -0.008868
						CHANNELS 3 Zrotation Yrotation Xrotation
						JOINT LeftForeArm
						{
							OFFSET 0.259612 -0.012772 -0.027456
							CHANNELS 3 Zrotation Yrotation Xrotation
							JOINT LeftHand
							{
								OFFSET 0.249234 0.008986 -0.001171
								CHANNELS 3 Zrotation Yrotation Xrotation
								End Site
								{
									OFFSET 0.000000 0.000000 0.000000
								}
							}
						}
					}
				}
				JOINT RightShoulder
				{
					OFFSET -0.081759 0.118833 -0.038615
					CHANNELS 3 Zrotation Yrotation Xrotation
					JOINT RightArm
					{
						OFFSET -0.096012 0.032551 -0.009143
						CHANNELS 3 Zrotation Yrotation Xrotation
						JOINT RightForeArm
						{
							OFFSET -0.253742 -0.013329 -0.021401
							CHANNELS 3 Zrotation Yrotation Xrotation
							JOINT RightHand
							{
								OFFSET -0.255298 0.007772 -0.005559
								CHANNELS 3 Zrotation Yrotation Xrotation
								End Site
								{
									OFFSET 0.000000 0.000000 0.000000
								}
							}
						}
					}
				}
			}
		}
	}
}
MOTION
Frames: 13
Frame Time: 0.050000
0.009867 0.933646 -0.018876 1.003164 -16.635438 3.934959 4.590786 -0.030034 -1.750742 -0.122391 0.110819 -3.097204 6.447463 13.565006 8.901991 0.000000 0.000000 0.000000 -8.771305 0.850304 -7.764988 -1.297375 0.417665 5.119504 3.909943 5.704551 4.581989 0.000000 0.000000 0.000000 2.295842 0.646102 -8.541943 3.865942 -1.439875 -10.785363 -3.592852 -5.282233 14.310509 -2.936368 1.580473 -8.631801 0.000000 0.000000 0.000000 30.194855 -17.644112 0.193562 12.613686 -47.163059 -3.739294 20.653912 -1.675668 0.268255 0.000000 0.000000 0.000000 -0.590629 3.014658 0.987392 69.127956 2.055092 -9.752583 10.724404 21.375615 1.998924 0.000000 0.000000 0.000000 
0.010040 0.933506 -0.019614 1.162004 -16.350581 3.712634 4.502075 -0.027120 -1.614212 -0.296764 0.132960 -3.168535 6.255956 13.248490 8.798295 0.000000 0.000000 0.000000 -9.019362 0.840810 -7.593106 -1.433025 0.452062 5.372001 3.833789 5.618679 4.496795 0.000000 0.000000 0.000000 2.344340 0.656968 -8.654194 3.677620 -1.372995 -10.756286 -3.543950 -5.298576 14.528385 -3.885337 2.333100 -8.148434 0.000000 0.000000 0.000000 29.898078 -17.969603 0.289857 13.425748 -47.316700 -4.069316 19.677304 -1.004590 0.317337 0.000000 0.000000 0.000000 -0.209693 3.375506 1.018606 68.441824 2.034059 -9.541607 10.576847 21.569855 1.999422 0.000000 0.000000 0.000000 
0.010282 0.933459 -0.020252 1.354697 -16.065170 3.674547 4.407034 -0.043193 -1.783627 -0.531753 0.156178 -3.064977 6.182816 13.137903 8.671040 0.000000 0.000000 0.000000 -9.366708 0.848713 -7.787184 -1.445590 0.484235 5.791578 3.765011 5.446695 4.538570 0.000000 0.000000 0.000000 2.268024 0.660119 -8.770341 3.743256 -1.402835 -10.489404 -3.689314 -5.184814 14.219799 -4.327865 2.750562 -7.459973 0.000000 0.000000 0.000000 29.829839 -18.070154 0.389667 14.164950 -47.773826 -4.437408 18.786304 -0.203642 0.376878 0.000000 0.000000 0.000000 -0.077549 3.480298 1.029454 67.924001 1.588864 -9.564129 10.620880 21.463226 2.006276 0.000000 0.000000 0.000000 
0.010533 0.933752 -0.020909 1.454237 -15.708101 3.710101 4.283987 -0.060020 -1.926724 -0.763800 0.179516 -2.965338 6.099446 13.015493 8.452577 0.000000 0.000000 0.000000 -9.536434 0.848147 -7.898877 -1.494679 0.495870 5.870525 3.746706 5.427758 4.543332 0.000000 0.000000 0.000000 2.575424 0.688484 -8.907481 3.237715 -1.194489 -11.138601 -3.666603 -5.043583 14.876011 -4.844666 3.184154 -7.266453 0.000000 0.000000 0.000000 29.653535 -18.638883 0.471830 15.298106 -47.771416 -4.886363 18.255873 0.603458 0.438286 0.000000 0.000000 0.000000 0.738188 3.642949 0.916942 67.041282 1.308582 -9.441408 10.185565 21.628848 1.966130 0.000000 0.000000 0.000000 
0.010765 0.933807 -0.021548 1.370447 -15.539755 3.754291 4.548167 -0.052210 -1.934464 -0.849476 0.191050 -3.033638 6.047115 12.929524 8.582349 0.000000 0.000000 0.000000 -9.507715 0.841256 -7.817531 -1.514404 0.482225 5.652881 3.691927 5.181231 4.694234 0.000000 0.000000 0.000000 2.805757 0.721659 -9.110531 2.902816 -1.063324 -11.467031 -3.523677 -4.968640 15.314101 -4.866830 3.203949 -7.327972 0.000000 0.000000 0.000000 29.774958 -18.925287 0.460985 15.988186 -47.656363 -5.115927 17.651048 1.557810 0.520378 0.000000 0.000000 0.000000 1.165104 3.654517 0.836190 66.435409 1.232219 -9.321487 9.787265 21.680612 1.910873 0.000000 0.000000 0.000000 
0.010918 0.934062 -0.022226 1.299285 -15.114275 3.936541 4.831977 -0.066452 -2.297216 -1.066148 0.215681 -3.056808 5.733656 12.387024 8.956199 0.000000 0.000000 0.000000 -9.499668 0.839057 -7.996013 -1.408744 0.464745 5.603696 3.703101 5.206765 4.738606 0.000000 0.000000 0.000000 2.830252 0.723628 -9.173087 3.012320 -1.103387 -11.191637 -3.733825 -4.805319 14.700223 -4.805087 3.247664 -6.692493 0.000000 0.000000 0.000000 29.743834 -19.177977 0.616100 17.129039 -47.766248 -5.618688 17.034830 2.117631 0.539905 0.000000 0.000000 0.000000 1.950808 3.462222 0.627887 65.913673 1.003340 -9.098257 9.231182 21.346257 1.803110 0.000000 0.000000 0.000000 
0.010986 0.934576 -0.022905 1.240171 -14.916691 3.988228 4.896802 -0.072922 -2.430292 -1.056103 0.211583 -2.951775 5.650545 12.251632 8.777902 0.000000 0.000000 0.000000 -9.389875 0.829104 -7.882366 -1.268900 0.425242 5.298375 3.469074 4.673554 4.736358 0.000000 0.000000 0.000000 2.859486 0.728818 -9.227901 2.863655 -1.034531 -11.536528 -3.678381 -4.816608 14.925497 -4.741038 3.224025 -6.421627 0.000000 0.000000 0.000000 29.479526 -19.217093 0.649583 18.150123 -48.110089 -6.034897 16.556434 2.893979 0.591673 0.000000 0.000000 0.000000 2.687265 3.261078 0.410523 65.500154 1.088671 -8.891022 8.827436 21.286509 1.732414 0.000000 0.000000 0.000000 
0.011073 0.934980 -0.023615 1.128073 -14.650195 4.175383 5.238490 -0.073733 -2.642665 -1.340885 0.243086 -2.941461 5.529137 12.053769 9.239806 0.000000 0.000000 0.000000 -9.341095 0.828903 -7.997960 -1.044120 0.385660 5.131871 3.281078 4.104833 4.925343 0.000000 0.000000 0.000000 2.938586 0.738372 -9.310304 2.968686 -1.060889 -11.622476 -3.858031 -4.786836 14.620206 -4.711691 3.214046 -6.437253 0.000000 0.000000 0.000000 29.406274 -19.480064 0.751959 18.465522 -48.065002 -6.186833 15.894135 2.887739 0.549893 0.000000 0.000000 0.000000 3.467267 2.731898 0.071031 65.178478 1.183999 -8.619072 8.462217 20.810949 1.634754 0.000000 0.000000 0.000000 
0.011174 0.935449 -0.024396 1.108565 -14.606504 4.182545 5.224869 -0.082305 -2.811650 -1.256744 0.228530 -2.735069 5.577537 12.141712 9.393271 0.000000 0.000000 0.000000 -9.305929 0.832597 -8.172778 -0.934605 0.373867 5.157339 3.183556 3.839366 4.981297 0.000000 0.000000 0.000000 3.027786 0.728624 -9.159583 2.810981 -0.987908 -12.069466 -3.716908 -4.947863 14.702342 -4.841181 3.269820 -6.824329 0.000000 0.000000 0.000000 28.848316 -19.855154 0.860937 18.478439 -48.261303 -6.211335 14.998026 3.232833 0.534319 0.000000 0.000000 0.000000 4.121244 2.661065 -0.110460 64.892365 1.174121 -8.517832 7.934921 20.633279 1.524664 0.000000 0.000000 0.000000 
0.011401 0.935823 -0.025256 0.962707 -14.625609 4.299042 5.180719 -0.097219 -3.088542 -0.960792 0.192460 -2.660916 5.750515 12.440491 9.638217 0.000000 0.000000 0.000000 -9.024269 0.833863 -8.274067 -0.865493 0.369925 5.223602 3.061504 3.637856 4.875459 0.000000 0.000000 0.000000 3.249806 0.724057 -8.971484 2.659297 -0.920727 -12.474850 -3.719975 -4.915817 14.675584 -4.428510 2.955961 -6.688590 0.000000 0.000000 0.000000 28.015096 -20.314774 1.080238 18.509287 -48.422777 -6.297988 14.338716 2.592545 0.433543 0.000000 0.000000 0.000000 4.830798 2.441002 -0.349418 64.698785 1.051881 -8.467975 7.732888 20.616591 1.487054 0.000000 0.000000 0.000000 
0.011634 0.936221 -0.026107 0.764000 -14.582803 4.511780 5.200953 -0.112679 -3.400344 -0.784742 0.165034 -2.398594 5.703853 12.354130 9.652531 0.000000 0.000000 0.000000 -8.679794 0.836319 -8.394661 -0.882190 0.366151 5.133740 2.997584 3.283423 5.142626 0.000000 0.000000 0.000000 3.338947 0.730551 -8.993535 2.624880 -0.904870 -12.545921 -3.598170 -4.773166 14.491953 -4.103518 2.707621 -6.772289 0.000000 0.000000 0.000000 27.014202 -20.696932 1.377607 18.488751 -49.292119 -6.557479 14.074168 2.624005 0.413353 0.000000 0.000000 0.000000 5.372076 2.195913 -0.548288 64.136824 0.832581 -8.381918 7.980887 20.286249 1.504545 0.000000 0.000000 0.000000 
0.011900 0.936633 -0.026896 0.621194 -14.733169 4.650136 5.069441 -0.116928 -3.362381 -0.507719 0.142569 -2.732877 5.935893 12.748798 9.909387 0.000000 0.000000 0.000000 -8.387193 0.841006 -8.470106 -0.952146 0.361586 4.930110 3.083429 3.253751 5.416324 0.000000 0.000000 0.000000 3.424816 0.721565 -8.845027 2.857027 -0.982087 -12.589148 -3.753916 -4.774676 14.005951 -3.788366 2.467751 -6.673003 0.000000 0.000000 0.000000 25.905435 -21.161511 1.714373 18.316494 -49.529829 -6.605240 13.509637 1.944306 0.327142 0.000000 0.000000 0.000000 5.626285 2.171582 -0.624416 63.809711 0.775802 -8.269439 7.921367 20.014818 1.466386 0.000000 0.000000 0.000000 
0.012049 0.936917 -0.027531 0.439269 -14.771153 4.762018 5.008207 -0.124853 -3.462976 -0.323215 0.123267 -2.783683 5.989238 12.835286 10.088995 0.000000 0.000000 0.000000 -8.133641 0.839994 -8.459035 -1.018879 0.350926 4.643587 3.180356 3.099939 5.895032 0.000000 0.000000 0.000000 3.393087 0.727632 -8.918247 2.970379 -1.019977 -12.594812 -3.857469 -4.808956 13.722477 -3.569820 2.302201 -6.608203 0.000000 0.000000 0.000000 25.432950 -21.691680 1.923080 17.570926 -49.917263 -6.450229 13.155395 1.260087 0.256059 0.000000 0.000000 0.000000 5.515782 1.959647 -0.681285 63.687651 0.580904 -8.339530 8.311802 19.387108 1.474095 0.000000 0.000000 0.000000 
